<svg xmlns="http://www.w3.org/2000/svg" width="800" height="800" opacity=".57">
  <g fill="#ffffffff" stroke="none" stroke-width="1.75">
    <rect width="22.22222222" height="4.15789474" x="-11.11111111" y="-2.07894737" rx="2.07894737"/>
    <rect width="4.15789474" height="22.22222222" x="-2.07894737" y="-11.11111111" rx="2.07894737"/>
    <rect width="22.22222222" height="4.15789474" x="33.33333333" y="-2.07894737" rx="2.07894737"/>
    <rect width="4.15789474" height="22.22222222" x="42.36549708" y="-11.11111111" rx="2.07894737"/>
    <rect width="22.22222222" height="4.15789474" x="77.77777778" y="-2.07894737" rx="2.07894737"/>
    <rect width="4.15789474" height="22.22222222" x="86.80994152" y="-11.11111111" rx="2.07894737"/>
    <rect width="22.22222222" height="4.15789474" x="122.22222222" y="-2.07894737" rx="2.07894737"/>
    <rect width="4.15789474" height="22.22222222" x="131.25438596" y="-11.11111111" rx="2.07894737"/>
    <rect width="22.22222222" height="4.15789474" x="166.66666667" y="-2.07894737" rx="2.07894737"/>
    <rect width="4.15789474" height="22.22222222" x="175.69883041" y="-11.11111111" rx="2.07894737"/>
    <rect width="22.22222222" height="4.15789474" x="211.11111111" y="-2.07894737" rx="2.07894737"/>
    <rect width="4.15789474" height="22.22222222" x="220.14327485" y="-11.11111111" rx="2.07894737"/>
    <rect width="22.22222222" height="4.15789474" x="255.55555556" y="-2.07894737" rx="2.07894737"/>
    <rect width="4.15789474" height="22.22222222" x="264.5877193" y="-11.11111111" rx="2.07894737"/>
    <rect width="22.22222222" height="4.15789474" x="300" y="-2.07894737" rx="2.07894737"/>
    <rect width="4.15789474" height="22.22222222" x="309.03216374" y="-11.11111111" rx="2.07894737"/>
    <rect width="22.22222222" height="4.15789474" x="344.44444444" y="-2.07894737" rx="2.07894737"/>
    <rect width="4.15789474" height="22.22222222" x="353.47660819" y="-11.11111111" rx="2.07894737"/>
    <rect width="22.22222222" height="4.15789474" x="388.88888889" y="-2.07894737" rx="2.07894737"/>
    <rect width="4.15789474" height="22.22222222" x="397.92105263" y="-11.11111111" rx="2.07894737"/>
    <rect width="22.22222222" height="4.15789474" x="433.33333333" y="-2.07894737" rx="2.07894737"/>
    <rect width="4.15789474" height="22.22222222" x="442.36549708" y="-11.11111111" rx="2.07894737"/>
    <rect width="22.22222222" height="4.15789474" x="477.77777778" y="-2.07894737" rx="2.07894737"/>
    <rect width="4.15789474" height="22.22222222" x="486.80994152" y="-11.11111111" rx="2.07894737"/>
    <rect width="22.22222222" height="4.15789474" x="522.22222222" y="-2.07894737" rx="2.07894737"/>
    <rect width="4.15789474" height="22.22222222" x="531.25438596" y="-11.11111111" rx="2.07894737"/>
    <rect width="22.22222222" height="4.15789474" x="566.66666667" y="-2.07894737" rx="2.07894737"/>
    <rect width="4.15789474" height="22.22222222" x="575.69883041" y="-11.11111111" rx="2.07894737"/>
    <rect width="22.22222222" height="4.15789474" x="611.11111111" y="-2.07894737" rx="2.07894737"/>
    <rect width="4.15789474" height="22.22222222" x="620.14327485" y="-11.11111111" rx="2.07894737"/>
    <rect width="22.22222222" height="4.15789474" x="655.55555556" y="-2.07894737" rx="2.07894737"/>
    <rect width="4.15789474" height="22.22222222" x="664.5877193" y="-11.11111111" rx="2.07894737"/>
    <rect width="22.22222222" height="4.15789474" x="700" y="-2.07894737" rx="2.07894737"/>
    <rect width="4.15789474" height="22.22222222" x="709.03216374" y="-11.11111111" rx="2.07894737"/>
    <rect width="22.22222222" height="4.15789474" x="744.44444444" y="-2.07894737" rx="2.07894737"/>
    <rect width="4.15789474" height="22.22222222" x="753.47660819" y="-11.11111111" rx="2.07894737"/>
    <rect width="22.22222222" height="4.15789474" x="788.88888889" y="-2.07894737" rx="2.07894737"/>
    <rect width="4.15789474" height="22.22222222" x="797.92105263" y="-11.11111111" rx="2.07894737"/>
    <rect width="22.22222222" height="4.15789474" x="-11.11111111" y="42.36549708" rx="2.07894737"/>
    <rect width="4.15789474" height="22.22222222" x="-2.07894737" y="33.33333333" rx="2.07894737"/>
    <rect width="22.22222222" height="4.15789474" x="33.33333333" y="42.36549708" rx="2.07894737"/>
    <rect width="4.15789474" height="22.22222222" x="42.36549708" y="33.33333333" rx="2.07894737"/>
    <rect width="22.22222222" height="4.15789474" x="77.77777778" y="42.36549708" rx="2.07894737"/>
    <rect width="4.15789474" height="22.22222222" x="86.80994152" y="33.33333333" rx="2.07894737"/>
    <rect width="22.22222222" height="4.15789474" x="122.22222222" y="42.36549708" rx="2.07894737"/>
    <rect width="4.15789474" height="22.22222222" x="131.25438596" y="33.33333333" rx="2.07894737"/>
    <rect width="22.22222222" height="4.15789474" x="166.66666667" y="42.36549708" rx="2.07894737"/>
    <rect width="4.15789474" height="22.22222222" x="175.69883041" y="33.33333333" rx="2.07894737"/>
    <rect width="22.22222222" height="4.15789474" x="211.11111111" y="42.36549708" rx="2.07894737"/>
    <rect width="4.15789474" height="22.22222222" x="220.14327485" y="33.33333333" rx="2.07894737"/>
    <rect width="22.22222222" height="4.15789474" x="255.55555556" y="42.36549708" rx="2.07894737"/>
    <rect width="4.15789474" height="22.22222222" x="264.5877193" y="33.33333333" rx="2.07894737"/>
    <rect width="22.22222222" height="4.15789474" x="300" y="42.36549708" rx="2.07894737"/>
    <rect width="4.15789474" height="22.22222222" x="309.03216374" y="33.33333333" rx="2.07894737"/>
    <rect width="22.22222222" height="4.15789474" x="344.44444444" y="42.36549708" rx="2.07894737"/>
    <rect width="4.15789474" height="22.22222222" x="353.47660819" y="33.33333333" rx="2.07894737"/>
    <rect width="22.22222222" height="4.15789474" x="388.88888889" y="42.36549708" rx="2.07894737"/>
    <rect width="4.15789474" height="22.22222222" x="397.92105263" y="33.33333333" rx="2.07894737"/>
    <rect width="22.22222222" height="4.15789474" x="433.33333333" y="42.36549708" rx="2.07894737"/>
    <rect width="4.15789474" height="22.22222222" x="442.36549708" y="33.33333333" rx="2.07894737"/>
    <rect width="22.22222222" height="4.15789474" x="477.77777778" y="42.36549708" rx="2.07894737"/>
    <rect width="4.15789474" height="22.22222222" x="486.80994152" y="33.33333333" rx="2.07894737"/>
    <rect width="22.22222222" height="4.15789474" x="522.22222222" y="42.36549708" rx="2.07894737"/>
    <rect width="4.15789474" height="22.22222222" x="531.25438596" y="33.33333333" rx="2.07894737"/>
    <rect width="22.22222222" height="4.15789474" x="566.66666667" y="42.36549708" rx="2.07894737"/>
    <rect width="4.15789474" height="22.22222222" x="575.69883041" y="33.33333333" rx="2.07894737"/>
    <rect width="22.22222222" height="4.15789474" x="611.11111111" y="42.36549708" rx="2.07894737"/>
    <rect width="4.15789474" height="22.22222222" x="620.14327485" y="33.33333333" rx="2.07894737"/>
    <rect width="22.22222222" height="4.15789474" x="655.55555556" y="42.36549708" rx="2.07894737"/>
    <rect width="4.15789474" height="22.22222222" x="664.5877193" y="33.33333333" rx="2.07894737"/>
    <rect width="22.22222222" height="4.15789474" x="700" y="42.36549708" rx="2.07894737"/>
    <rect width="4.15789474" height="22.22222222" x="709.03216374" y="33.33333333" rx="2.07894737"/>
    <rect width="22.22222222" height="4.15789474" x="744.44444444" y="42.36549708" rx="2.07894737"/>
    <rect width="4.15789474" height="22.22222222" x="753.47660819" y="33.33333333" rx="2.07894737"/>
    <rect width="22.22222222" height="4.15789474" x="788.88888889" y="42.36549708" rx="2.07894737"/>
    <rect width="4.15789474" height="22.22222222" x="797.92105263" y="33.33333333" rx="2.07894737"/>
    <rect width="22.22222222" height="4.15789474" x="-11.11111111" y="86.80994152" rx="2.07894737"/>
    <rect width="4.15789474" height="22.22222222" x="-2.07894737" y="77.77777778" rx="2.07894737"/>
    <rect width="22.22222222" height="4.15789474" x="33.33333333" y="86.80994152" rx="2.07894737"/>
    <rect width="4.15789474" height="22.22222222" x="42.36549708" y="77.77777778" rx="2.07894737"/>
    <rect width="22.22222222" height="4.15789474" x="77.77777778" y="86.80994152" rx="2.07894737"/>
    <rect width="4.15789474" height="22.22222222" x="86.80994152" y="77.77777778" rx="2.07894737"/>
    <rect width="22.22222222" height="4.15789474" x="122.22222222" y="86.80994152" rx="2.07894737"/>
    <rect width="4.15789474" height="22.22222222" x="131.25438596" y="77.77777778" rx="2.07894737"/>
    <rect width="22.22222222" height="4.15789474" x="166.66666667" y="86.80994152" rx="2.07894737"/>
    <rect width="4.15789474" height="22.22222222" x="175.69883041" y="77.77777778" rx="2.07894737"/>
    <rect width="22.22222222" height="4.15789474" x="211.11111111" y="86.80994152" rx="2.07894737"/>
    <rect width="4.15789474" height="22.22222222" x="220.14327485" y="77.77777778" rx="2.07894737"/>
    <rect width="22.22222222" height="4.15789474" x="255.55555556" y="86.80994152" rx="2.07894737"/>
    <rect width="4.15789474" height="22.22222222" x="264.5877193" y="77.77777778" rx="2.07894737"/>
    <rect width="22.22222222" height="4.15789474" x="300" y="86.80994152" rx="2.07894737"/>
    <rect width="4.15789474" height="22.22222222" x="309.03216374" y="77.77777778" rx="2.07894737"/>
    <rect width="22.22222222" height="4.15789474" x="344.44444444" y="86.80994152" rx="2.07894737"/>
    <rect width="4.15789474" height="22.22222222" x="353.47660819" y="77.77777778" rx="2.07894737"/>
    <rect width="22.22222222" height="4.15789474" x="388.88888889" y="86.80994152" rx="2.07894737"/>
    <rect width="4.15789474" height="22.22222222" x="397.92105263" y="77.77777778" rx="2.07894737"/>
    <rect width="22.22222222" height="4.15789474" x="433.33333333" y="86.80994152" rx="2.07894737"/>
    <rect width="4.15789474" height="22.22222222" x="442.36549708" y="77.77777778" rx="2.07894737"/>
    <rect width="22.22222222" height="4.15789474" x="477.77777778" y="86.80994152" rx="2.07894737"/>
    <rect width="4.15789474" height="22.22222222" x="486.80994152" y="77.77777778" rx="2.07894737"/>
    <rect width="22.22222222" height="4.15789474" x="522.22222222" y="86.80994152" rx="2.07894737"/>
    <rect width="4.15789474" height="22.22222222" x="531.25438596" y="77.77777778" rx="2.07894737"/>
    <rect width="22.22222222" height="4.15789474" x="566.66666667" y="86.80994152" rx="2.07894737"/>
    <rect width="4.15789474" height="22.22222222" x="575.69883041" y="77.77777778" rx="2.07894737"/>
    <rect width="22.22222222" height="4.15789474" x="611.11111111" y="86.80994152" rx="2.07894737"/>
    <rect width="4.15789474" height="22.22222222" x="620.14327485" y="77.77777778" rx="2.07894737"/>
    <rect width="22.22222222" height="4.15789474" x="655.55555556" y="86.80994152" rx="2.07894737"/>
    <rect width="4.15789474" height="22.22222222" x="664.5877193" y="77.77777778" rx="2.07894737"/>
    <rect width="22.22222222" height="4.15789474" x="700" y="86.80994152" rx="2.07894737"/>
    <rect width="4.15789474" height="22.22222222" x="709.03216374" y="77.77777778" rx="2.07894737"/>
    <rect width="22.22222222" height="4.15789474" x="744.44444444" y="86.80994152" rx="2.07894737"/>
    <rect width="4.15789474" height="22.22222222" x="753.47660819" y="77.77777778" rx="2.07894737"/>
    <rect width="22.22222222" height="4.15789474" x="788.88888889" y="86.80994152" rx="2.07894737"/>
    <rect width="4.15789474" height="22.22222222" x="797.92105263" y="77.77777778" rx="2.07894737"/>
    <rect width="22.22222222" height="4.15789474" x="-11.11111111" y="131.25438596" rx="2.07894737"/>
    <rect width="4.15789474" height="22.22222222" x="-2.07894737" y="122.22222222" rx="2.07894737"/>
    <rect width="22.22222222" height="4.15789474" x="33.33333333" y="131.25438596" rx="2.07894737"/>
    <rect width="4.15789474" height="22.22222222" x="42.36549708" y="122.22222222" rx="2.07894737"/>
    <rect width="22.22222222" height="4.15789474" x="77.77777778" y="131.25438596" rx="2.07894737"/>
    <rect width="4.15789474" height="22.22222222" x="86.80994152" y="122.22222222" rx="2.07894737"/>
    <rect width="22.22222222" height="4.15789474" x="122.22222222" y="131.25438596" rx="2.07894737"/>
    <rect width="4.15789474" height="22.22222222" x="131.25438596" y="122.22222222" rx="2.07894737"/>
    <rect width="22.22222222" height="4.15789474" x="166.66666667" y="131.25438596" rx="2.07894737"/>
    <rect width="4.15789474" height="22.22222222" x="175.69883041" y="122.22222222" rx="2.07894737"/>
    <rect width="22.22222222" height="4.15789474" x="211.11111111" y="131.25438596" rx="2.07894737"/>
    <rect width="4.15789474" height="22.22222222" x="220.14327485" y="122.22222222" rx="2.07894737"/>
    <rect width="22.22222222" height="4.15789474" x="255.55555556" y="131.25438596" rx="2.07894737"/>
    <rect width="4.15789474" height="22.22222222" x="264.5877193" y="122.22222222" rx="2.07894737"/>
    <rect width="22.22222222" height="4.15789474" x="300" y="131.25438596" rx="2.07894737"/>
    <rect width="4.15789474" height="22.22222222" x="309.03216374" y="122.22222222" rx="2.07894737"/>
    <rect width="22.22222222" height="4.15789474" x="344.44444444" y="131.25438596" rx="2.07894737"/>
    <rect width="4.15789474" height="22.22222222" x="353.47660819" y="122.22222222" rx="2.07894737"/>
    <rect width="22.22222222" height="4.15789474" x="388.88888889" y="131.25438596" rx="2.07894737"/>
    <rect width="4.15789474" height="22.22222222" x="397.92105263" y="122.22222222" rx="2.07894737"/>
    <rect width="22.22222222" height="4.15789474" x="433.33333333" y="131.25438596" rx="2.07894737"/>
    <rect width="4.15789474" height="22.22222222" x="442.36549708" y="122.22222222" rx="2.07894737"/>
    <rect width="22.22222222" height="4.15789474" x="477.77777778" y="131.25438596" rx="2.07894737"/>
    <rect width="4.15789474" height="22.22222222" x="486.80994152" y="122.22222222" rx="2.07894737"/>
    <rect width="22.22222222" height="4.15789474" x="522.22222222" y="131.25438596" rx="2.07894737"/>
    <rect width="4.15789474" height="22.22222222" x="531.25438596" y="122.22222222" rx="2.07894737"/>
    <rect width="22.22222222" height="4.15789474" x="566.66666667" y="131.25438596" rx="2.07894737"/>
    <rect width="4.15789474" height="22.22222222" x="575.69883041" y="122.22222222" rx="2.07894737"/>
    <rect width="22.22222222" height="4.15789474" x="611.11111111" y="131.25438596" rx="2.07894737"/>
    <rect width="4.15789474" height="22.22222222" x="620.14327485" y="122.22222222" rx="2.07894737"/>
    <rect width="22.22222222" height="4.15789474" x="655.55555556" y="131.25438596" rx="2.07894737"/>
    <rect width="4.15789474" height="22.22222222" x="664.5877193" y="122.22222222" rx="2.07894737"/>
    <rect width="22.22222222" height="4.15789474" x="700" y="131.25438596" rx="2.07894737"/>
    <rect width="4.15789474" height="22.22222222" x="709.03216374" y="122.22222222" rx="2.07894737"/>
    <rect width="22.22222222" height="4.15789474" x="744.44444444" y="131.25438596" rx="2.07894737"/>
    <rect width="4.15789474" height="22.22222222" x="753.47660819" y="122.22222222" rx="2.07894737"/>
    <rect width="22.22222222" height="4.15789474" x="788.88888889" y="131.25438596" rx="2.07894737"/>
    <rect width="4.15789474" height="22.22222222" x="797.92105263" y="122.22222222" rx="2.07894737"/>
    <rect width="22.22222222" height="4.15789474" x="-11.11111111" y="175.69883041" rx="2.07894737"/>
    <rect width="4.15789474" height="22.22222222" x="-2.07894737" y="166.66666667" rx="2.07894737"/>
    <rect width="22.22222222" height="4.15789474" x="33.33333333" y="175.69883041" rx="2.07894737"/>
    <rect width="4.15789474" height="22.22222222" x="42.36549708" y="166.66666667" rx="2.07894737"/>
    <rect width="22.22222222" height="4.15789474" x="77.77777778" y="175.69883041" rx="2.07894737"/>
    <rect width="4.15789474" height="22.22222222" x="86.80994152" y="166.66666667" rx="2.07894737"/>
    <rect width="22.22222222" height="4.15789474" x="122.22222222" y="175.69883041" rx="2.07894737"/>
    <rect width="4.15789474" height="22.22222222" x="131.25438596" y="166.66666667" rx="2.07894737"/>
    <rect width="22.22222222" height="4.15789474" x="166.66666667" y="175.69883041" rx="2.07894737"/>
    <rect width="4.15789474" height="22.22222222" x="175.69883041" y="166.66666667" rx="2.07894737"/>
    <rect width="22.22222222" height="4.15789474" x="211.11111111" y="175.69883041" rx="2.07894737"/>
    <rect width="4.15789474" height="22.22222222" x="220.14327485" y="166.66666667" rx="2.07894737"/>
    <rect width="22.22222222" height="4.15789474" x="255.55555556" y="175.69883041" rx="2.07894737"/>
    <rect width="4.15789474" height="22.22222222" x="264.5877193" y="166.66666667" rx="2.07894737"/>
    <rect width="22.22222222" height="4.15789474" x="300" y="175.69883041" rx="2.07894737"/>
    <rect width="4.15789474" height="22.22222222" x="309.03216374" y="166.66666667" rx="2.07894737"/>
    <rect width="22.22222222" height="4.15789474" x="344.44444444" y="175.69883041" rx="2.07894737"/>
    <rect width="4.15789474" height="22.22222222" x="353.47660819" y="166.66666667" rx="2.07894737"/>
    <rect width="22.22222222" height="4.15789474" x="388.88888889" y="175.69883041" rx="2.07894737"/>
    <rect width="4.15789474" height="22.22222222" x="397.92105263" y="166.66666667" rx="2.07894737"/>
    <rect width="22.22222222" height="4.15789474" x="433.33333333" y="175.69883041" rx="2.07894737"/>
    <rect width="4.15789474" height="22.22222222" x="442.36549708" y="166.66666667" rx="2.07894737"/>
    <rect width="22.22222222" height="4.15789474" x="477.77777778" y="175.69883041" rx="2.07894737"/>
    <rect width="4.15789474" height="22.22222222" x="486.80994152" y="166.66666667" rx="2.07894737"/>
    <rect width="22.22222222" height="4.15789474" x="522.22222222" y="175.69883041" rx="2.07894737"/>
    <rect width="4.15789474" height="22.22222222" x="531.25438596" y="166.66666667" rx="2.07894737"/>
    <rect width="22.22222222" height="4.15789474" x="566.66666667" y="175.69883041" rx="2.07894737"/>
    <rect width="4.15789474" height="22.22222222" x="575.69883041" y="166.66666667" rx="2.07894737"/>
    <rect width="22.22222222" height="4.15789474" x="611.11111111" y="175.69883041" rx="2.07894737"/>
    <rect width="4.15789474" height="22.22222222" x="620.14327485" y="166.66666667" rx="2.07894737"/>
    <rect width="22.22222222" height="4.15789474" x="655.55555556" y="175.69883041" rx="2.07894737"/>
    <rect width="4.15789474" height="22.22222222" x="664.5877193" y="166.66666667" rx="2.07894737"/>
    <rect width="22.22222222" height="4.15789474" x="700" y="175.69883041" rx="2.07894737"/>
    <rect width="4.15789474" height="22.22222222" x="709.03216374" y="166.66666667" rx="2.07894737"/>
    <rect width="22.22222222" height="4.15789474" x="744.44444444" y="175.69883041" rx="2.07894737"/>
    <rect width="4.15789474" height="22.22222222" x="753.47660819" y="166.66666667" rx="2.07894737"/>
    <rect width="22.22222222" height="4.15789474" x="788.88888889" y="175.69883041" rx="2.07894737"/>
    <rect width="4.15789474" height="22.22222222" x="797.92105263" y="166.66666667" rx="2.07894737"/>
    <rect width="22.22222222" height="4.15789474" x="-11.11111111" y="220.14327485" rx="2.07894737"/>
    <rect width="4.15789474" height="22.22222222" x="-2.07894737" y="211.11111111" rx="2.07894737"/>
    <rect width="22.22222222" height="4.15789474" x="33.33333333" y="220.14327485" rx="2.07894737"/>
    <rect width="4.15789474" height="22.22222222" x="42.36549708" y="211.11111111" rx="2.07894737"/>
    <rect width="22.22222222" height="4.15789474" x="77.77777778" y="220.14327485" rx="2.07894737"/>
    <rect width="4.15789474" height="22.22222222" x="86.80994152" y="211.11111111" rx="2.07894737"/>
    <rect width="22.22222222" height="4.15789474" x="122.22222222" y="220.14327485" rx="2.07894737"/>
    <rect width="4.15789474" height="22.22222222" x="131.25438596" y="211.11111111" rx="2.07894737"/>
    <rect width="22.22222222" height="4.15789474" x="166.66666667" y="220.14327485" rx="2.07894737"/>
    <rect width="4.15789474" height="22.22222222" x="175.69883041" y="211.11111111" rx="2.07894737"/>
    <rect width="22.22222222" height="4.15789474" x="211.11111111" y="220.14327485" rx="2.07894737"/>
    <rect width="4.15789474" height="22.22222222" x="220.14327485" y="211.11111111" rx="2.07894737"/>
    <rect width="22.22222222" height="4.15789474" x="255.55555556" y="220.14327485" rx="2.07894737"/>
    <rect width="4.15789474" height="22.22222222" x="264.5877193" y="211.11111111" rx="2.07894737"/>
    <rect width="22.22222222" height="4.15789474" x="300" y="220.14327485" rx="2.07894737"/>
    <rect width="4.15789474" height="22.22222222" x="309.03216374" y="211.11111111" rx="2.07894737"/>
    <rect width="22.22222222" height="4.15789474" x="344.44444444" y="220.14327485" rx="2.07894737"/>
    <rect width="4.15789474" height="22.22222222" x="353.47660819" y="211.11111111" rx="2.07894737"/>
    <rect width="22.22222222" height="4.15789474" x="388.88888889" y="220.14327485" rx="2.07894737"/>
    <rect width="4.15789474" height="22.22222222" x="397.92105263" y="211.11111111" rx="2.07894737"/>
    <rect width="22.22222222" height="4.15789474" x="433.33333333" y="220.14327485" rx="2.07894737"/>
    <rect width="4.15789474" height="22.22222222" x="442.36549708" y="211.11111111" rx="2.07894737"/>
    <rect width="22.22222222" height="4.15789474" x="477.77777778" y="220.14327485" rx="2.07894737"/>
    <rect width="4.15789474" height="22.22222222" x="486.80994152" y="211.11111111" rx="2.07894737"/>
    <rect width="22.22222222" height="4.15789474" x="522.22222222" y="220.14327485" rx="2.07894737"/>
    <rect width="4.15789474" height="22.22222222" x="531.25438596" y="211.11111111" rx="2.07894737"/>
    <rect width="22.22222222" height="4.15789474" x="566.66666667" y="220.14327485" rx="2.07894737"/>
    <rect width="4.15789474" height="22.22222222" x="575.69883041" y="211.11111111" rx="2.07894737"/>
    <rect width="22.22222222" height="4.15789474" x="611.11111111" y="220.14327485" rx="2.07894737"/>
    <rect width="4.15789474" height="22.22222222" x="620.14327485" y="211.11111111" rx="2.07894737"/>
    <rect width="22.22222222" height="4.15789474" x="655.55555556" y="220.14327485" rx="2.07894737"/>
    <rect width="4.15789474" height="22.22222222" x="664.5877193" y="211.11111111" rx="2.07894737"/>
    <rect width="22.22222222" height="4.15789474" x="700" y="220.14327485" rx="2.07894737"/>
    <rect width="4.15789474" height="22.22222222" x="709.03216374" y="211.11111111" rx="2.07894737"/>
    <rect width="22.22222222" height="4.15789474" x="744.44444444" y="220.14327485" rx="2.07894737"/>
    <rect width="4.15789474" height="22.22222222" x="753.47660819" y="211.11111111" rx="2.07894737"/>
    <rect width="22.22222222" height="4.15789474" x="788.88888889" y="220.14327485" rx="2.07894737"/>
    <rect width="4.15789474" height="22.22222222" x="797.92105263" y="211.11111111" rx="2.07894737"/>
    <rect width="22.22222222" height="4.15789474" x="-11.11111111" y="264.5877193" rx="2.07894737"/>
    <rect width="4.15789474" height="22.22222222" x="-2.07894737" y="255.55555556" rx="2.07894737"/>
    <rect width="22.22222222" height="4.15789474" x="33.33333333" y="264.5877193" rx="2.07894737"/>
    <rect width="4.15789474" height="22.22222222" x="42.36549708" y="255.55555556" rx="2.07894737"/>
    <rect width="22.22222222" height="4.15789474" x="77.77777778" y="264.5877193" rx="2.07894737"/>
    <rect width="4.15789474" height="22.22222222" x="86.80994152" y="255.55555556" rx="2.07894737"/>
    <rect width="22.22222222" height="4.15789474" x="122.22222222" y="264.5877193" rx="2.07894737"/>
    <rect width="4.15789474" height="22.22222222" x="131.25438596" y="255.55555556" rx="2.07894737"/>
    <rect width="22.22222222" height="4.15789474" x="166.66666667" y="264.5877193" rx="2.07894737"/>
    <rect width="4.15789474" height="22.22222222" x="175.69883041" y="255.55555556" rx="2.07894737"/>
    <rect width="22.22222222" height="4.15789474" x="211.11111111" y="264.5877193" rx="2.07894737"/>
    <rect width="4.15789474" height="22.22222222" x="220.14327485" y="255.55555556" rx="2.07894737"/>
    <rect width="22.22222222" height="4.15789474" x="255.55555556" y="264.5877193" rx="2.07894737"/>
    <rect width="4.15789474" height="22.22222222" x="264.5877193" y="255.55555556" rx="2.07894737"/>
    <rect width="22.22222222" height="4.15789474" x="300" y="264.5877193" rx="2.07894737"/>
    <rect width="4.15789474" height="22.22222222" x="309.03216374" y="255.55555556" rx="2.07894737"/>
    <rect width="22.22222222" height="4.15789474" x="344.44444444" y="264.5877193" rx="2.07894737"/>
    <rect width="4.15789474" height="22.22222222" x="353.47660819" y="255.55555556" rx="2.07894737"/>
    <rect width="22.22222222" height="4.15789474" x="388.88888889" y="264.5877193" rx="2.07894737"/>
    <rect width="4.15789474" height="22.22222222" x="397.92105263" y="255.55555556" rx="2.07894737"/>
    <rect width="22.22222222" height="4.15789474" x="433.33333333" y="264.5877193" rx="2.07894737"/>
    <rect width="4.15789474" height="22.22222222" x="442.36549708" y="255.55555556" rx="2.07894737"/>
    <rect width="22.22222222" height="4.15789474" x="477.77777778" y="264.5877193" rx="2.07894737"/>
    <rect width="4.15789474" height="22.22222222" x="486.80994152" y="255.55555556" rx="2.07894737"/>
    <rect width="22.22222222" height="4.15789474" x="522.22222222" y="264.5877193" rx="2.07894737"/>
    <rect width="4.15789474" height="22.22222222" x="531.25438596" y="255.55555556" rx="2.07894737"/>
    <rect width="22.22222222" height="4.15789474" x="566.66666667" y="264.5877193" rx="2.07894737"/>
    <rect width="4.15789474" height="22.22222222" x="575.69883041" y="255.55555556" rx="2.07894737"/>
    <rect width="22.22222222" height="4.15789474" x="611.11111111" y="264.5877193" rx="2.07894737"/>
    <rect width="4.15789474" height="22.22222222" x="620.14327485" y="255.55555556" rx="2.07894737"/>
    <rect width="22.22222222" height="4.15789474" x="655.55555556" y="264.5877193" rx="2.07894737"/>
    <rect width="4.15789474" height="22.22222222" x="664.5877193" y="255.55555556" rx="2.07894737"/>
    <rect width="22.22222222" height="4.15789474" x="700" y="264.5877193" rx="2.07894737"/>
    <rect width="4.15789474" height="22.22222222" x="709.03216374" y="255.55555556" rx="2.07894737"/>
    <rect width="22.22222222" height="4.15789474" x="744.44444444" y="264.5877193" rx="2.07894737"/>
    <rect width="4.15789474" height="22.22222222" x="753.47660819" y="255.55555556" rx="2.07894737"/>
    <rect width="22.22222222" height="4.15789474" x="788.88888889" y="264.5877193" rx="2.07894737"/>
    <rect width="4.15789474" height="22.22222222" x="797.92105263" y="255.55555556" rx="2.07894737"/>
    <rect width="22.22222222" height="4.15789474" x="-11.11111111" y="309.03216374" rx="2.07894737"/>
    <rect width="4.15789474" height="22.22222222" x="-2.07894737" y="300" rx="2.07894737"/>
    <rect width="22.22222222" height="4.15789474" x="33.33333333" y="309.03216374" rx="2.07894737"/>
    <rect width="4.15789474" height="22.22222222" x="42.36549708" y="300" rx="2.07894737"/>
    <rect width="22.22222222" height="4.15789474" x="77.77777778" y="309.03216374" rx="2.07894737"/>
    <rect width="4.15789474" height="22.22222222" x="86.80994152" y="300" rx="2.07894737"/>
    <rect width="22.22222222" height="4.15789474" x="122.22222222" y="309.03216374" rx="2.07894737"/>
    <rect width="4.15789474" height="22.22222222" x="131.25438596" y="300" rx="2.07894737"/>
    <rect width="22.22222222" height="4.15789474" x="166.66666667" y="309.03216374" rx="2.07894737"/>
    <rect width="4.15789474" height="22.22222222" x="175.69883041" y="300" rx="2.07894737"/>
    <rect width="22.22222222" height="4.15789474" x="211.11111111" y="309.03216374" rx="2.07894737"/>
    <rect width="4.15789474" height="22.22222222" x="220.14327485" y="300" rx="2.07894737"/>
    <rect width="22.22222222" height="4.15789474" x="255.55555556" y="309.03216374" rx="2.07894737"/>
    <rect width="4.15789474" height="22.22222222" x="264.5877193" y="300" rx="2.07894737"/>
    <rect width="22.22222222" height="4.15789474" x="300" y="309.03216374" rx="2.07894737"/>
    <rect width="4.15789474" height="22.22222222" x="309.03216374" y="300" rx="2.07894737"/>
    <rect width="22.22222222" height="4.15789474" x="344.44444444" y="309.03216374" rx="2.07894737"/>
    <rect width="4.15789474" height="22.22222222" x="353.47660819" y="300" rx="2.07894737"/>
    <rect width="22.22222222" height="4.15789474" x="388.88888889" y="309.03216374" rx="2.07894737"/>
    <rect width="4.15789474" height="22.22222222" x="397.92105263" y="300" rx="2.07894737"/>
    <rect width="22.22222222" height="4.15789474" x="433.33333333" y="309.03216374" rx="2.07894737"/>
    <rect width="4.15789474" height="22.22222222" x="442.36549708" y="300" rx="2.07894737"/>
    <rect width="22.22222222" height="4.15789474" x="477.77777778" y="309.03216374" rx="2.07894737"/>
    <rect width="4.15789474" height="22.22222222" x="486.80994152" y="300" rx="2.07894737"/>
    <rect width="22.22222222" height="4.15789474" x="522.22222222" y="309.03216374" rx="2.07894737"/>
    <rect width="4.15789474" height="22.22222222" x="531.25438596" y="300" rx="2.07894737"/>
    <rect width="22.22222222" height="4.15789474" x="566.66666667" y="309.03216374" rx="2.07894737"/>
    <rect width="4.15789474" height="22.22222222" x="575.69883041" y="300" rx="2.07894737"/>
    <rect width="22.22222222" height="4.15789474" x="611.11111111" y="309.03216374" rx="2.07894737"/>
    <rect width="4.15789474" height="22.22222222" x="620.14327485" y="300" rx="2.07894737"/>
    <rect width="22.22222222" height="4.15789474" x="655.55555556" y="309.03216374" rx="2.07894737"/>
    <rect width="4.15789474" height="22.22222222" x="664.5877193" y="300" rx="2.07894737"/>
    <rect width="22.22222222" height="4.15789474" x="700" y="309.03216374" rx="2.07894737"/>
    <rect width="4.15789474" height="22.22222222" x="709.03216374" y="300" rx="2.07894737"/>
    <rect width="22.22222222" height="4.15789474" x="744.44444444" y="309.03216374" rx="2.07894737"/>
    <rect width="4.15789474" height="22.22222222" x="753.47660819" y="300" rx="2.07894737"/>
    <rect width="22.22222222" height="4.15789474" x="788.88888889" y="309.03216374" rx="2.07894737"/>
    <rect width="4.15789474" height="22.22222222" x="797.92105263" y="300" rx="2.07894737"/>
    <rect width="22.22222222" height="4.15789474" x="-11.11111111" y="353.47660819" rx="2.07894737"/>
    <rect width="4.15789474" height="22.22222222" x="-2.07894737" y="344.44444444" rx="2.07894737"/>
    <rect width="22.22222222" height="4.15789474" x="33.33333333" y="353.47660819" rx="2.07894737"/>
    <rect width="4.15789474" height="22.22222222" x="42.36549708" y="344.44444444" rx="2.07894737"/>
    <rect width="22.22222222" height="4.15789474" x="77.77777778" y="353.47660819" rx="2.07894737"/>
    <rect width="4.15789474" height="22.22222222" x="86.80994152" y="344.44444444" rx="2.07894737"/>
    <rect width="22.22222222" height="4.15789474" x="122.22222222" y="353.47660819" rx="2.07894737"/>
    <rect width="4.15789474" height="22.22222222" x="131.25438596" y="344.44444444" rx="2.07894737"/>
    <rect width="22.22222222" height="4.15789474" x="166.66666667" y="353.47660819" rx="2.07894737"/>
    <rect width="4.15789474" height="22.22222222" x="175.69883041" y="344.44444444" rx="2.07894737"/>
    <rect width="22.22222222" height="4.15789474" x="211.11111111" y="353.47660819" rx="2.07894737"/>
    <rect width="4.15789474" height="22.22222222" x="220.14327485" y="344.44444444" rx="2.07894737"/>
    <rect width="22.22222222" height="4.15789474" x="255.55555556" y="353.47660819" rx="2.07894737"/>
    <rect width="4.15789474" height="22.22222222" x="264.5877193" y="344.44444444" rx="2.07894737"/>
    <rect width="22.22222222" height="4.15789474" x="300" y="353.47660819" rx="2.07894737"/>
    <rect width="4.15789474" height="22.22222222" x="309.03216374" y="344.44444444" rx="2.07894737"/>
    <rect width="22.22222222" height="4.15789474" x="344.44444444" y="353.47660819" rx="2.07894737"/>
    <rect width="4.15789474" height="22.22222222" x="353.47660819" y="344.44444444" rx="2.07894737"/>
    <rect width="22.22222222" height="4.15789474" x="388.88888889" y="353.47660819" rx="2.07894737"/>
    <rect width="4.15789474" height="22.22222222" x="397.92105263" y="344.44444444" rx="2.07894737"/>
    <rect width="22.22222222" height="4.15789474" x="433.33333333" y="353.47660819" rx="2.07894737"/>
    <rect width="4.15789474" height="22.22222222" x="442.36549708" y="344.44444444" rx="2.07894737"/>
    <rect width="22.22222222" height="4.15789474" x="477.77777778" y="353.47660819" rx="2.07894737"/>
    <rect width="4.15789474" height="22.22222222" x="486.80994152" y="344.44444444" rx="2.07894737"/>
    <rect width="22.22222222" height="4.15789474" x="522.22222222" y="353.47660819" rx="2.07894737"/>
    <rect width="4.15789474" height="22.22222222" x="531.25438596" y="344.44444444" rx="2.07894737"/>
    <rect width="22.22222222" height="4.15789474" x="566.66666667" y="353.47660819" rx="2.07894737"/>
    <rect width="4.15789474" height="22.22222222" x="575.69883041" y="344.44444444" rx="2.07894737"/>
    <rect width="22.22222222" height="4.15789474" x="611.11111111" y="353.47660819" rx="2.07894737"/>
    <rect width="4.15789474" height="22.22222222" x="620.14327485" y="344.44444444" rx="2.07894737"/>
    <rect width="22.22222222" height="4.15789474" x="655.55555556" y="353.47660819" rx="2.07894737"/>
    <rect width="4.15789474" height="22.22222222" x="664.5877193" y="344.44444444" rx="2.07894737"/>
    <rect width="22.22222222" height="4.15789474" x="700" y="353.47660819" rx="2.07894737"/>
    <rect width="4.15789474" height="22.22222222" x="709.03216374" y="344.44444444" rx="2.07894737"/>
    <rect width="22.22222222" height="4.15789474" x="744.44444444" y="353.47660819" rx="2.07894737"/>
    <rect width="4.15789474" height="22.22222222" x="753.47660819" y="344.44444444" rx="2.07894737"/>
    <rect width="22.22222222" height="4.15789474" x="788.88888889" y="353.47660819" rx="2.07894737"/>
    <rect width="4.15789474" height="22.22222222" x="797.92105263" y="344.44444444" rx="2.07894737"/>
    <rect width="22.22222222" height="4.15789474" x="-11.11111111" y="397.92105263" rx="2.07894737"/>
    <rect width="4.15789474" height="22.22222222" x="-2.07894737" y="388.88888889" rx="2.07894737"/>
    <rect width="22.22222222" height="4.15789474" x="33.33333333" y="397.92105263" rx="2.07894737"/>
    <rect width="4.15789474" height="22.22222222" x="42.36549708" y="388.88888889" rx="2.07894737"/>
    <rect width="22.22222222" height="4.15789474" x="77.77777778" y="397.92105263" rx="2.07894737"/>
    <rect width="4.15789474" height="22.22222222" x="86.80994152" y="388.88888889" rx="2.07894737"/>
    <rect width="22.22222222" height="4.15789474" x="122.22222222" y="397.92105263" rx="2.07894737"/>
    <rect width="4.15789474" height="22.22222222" x="131.25438596" y="388.88888889" rx="2.07894737"/>
    <rect width="22.22222222" height="4.15789474" x="166.66666667" y="397.92105263" rx="2.07894737"/>
    <rect width="4.15789474" height="22.22222222" x="175.69883041" y="388.88888889" rx="2.07894737"/>
    <rect width="22.22222222" height="4.15789474" x="211.11111111" y="397.92105263" rx="2.07894737"/>
    <rect width="4.15789474" height="22.22222222" x="220.14327485" y="388.88888889" rx="2.07894737"/>
    <rect width="22.22222222" height="4.15789474" x="255.55555556" y="397.92105263" rx="2.07894737"/>
    <rect width="4.15789474" height="22.22222222" x="264.5877193" y="388.88888889" rx="2.07894737"/>
    <rect width="22.22222222" height="4.15789474" x="300" y="397.92105263" rx="2.07894737"/>
    <rect width="4.15789474" height="22.22222222" x="309.03216374" y="388.88888889" rx="2.07894737"/>
    <rect width="22.22222222" height="4.15789474" x="344.44444444" y="397.92105263" rx="2.07894737"/>
    <rect width="4.15789474" height="22.22222222" x="353.47660819" y="388.88888889" rx="2.07894737"/>
    <rect width="22.22222222" height="4.15789474" x="388.88888889" y="397.92105263" rx="2.07894737"/>
    <rect width="4.15789474" height="22.22222222" x="397.92105263" y="388.88888889" rx="2.07894737"/>
    <rect width="22.22222222" height="4.15789474" x="433.33333333" y="397.92105263" rx="2.07894737"/>
    <rect width="4.15789474" height="22.22222222" x="442.36549708" y="388.88888889" rx="2.07894737"/>
    <rect width="22.22222222" height="4.15789474" x="477.77777778" y="397.92105263" rx="2.07894737"/>
    <rect width="4.15789474" height="22.22222222" x="486.80994152" y="388.88888889" rx="2.07894737"/>
    <rect width="22.22222222" height="4.15789474" x="522.22222222" y="397.92105263" rx="2.07894737"/>
    <rect width="4.15789474" height="22.22222222" x="531.25438596" y="388.88888889" rx="2.07894737"/>
    <rect width="22.22222222" height="4.15789474" x="566.66666667" y="397.92105263" rx="2.07894737"/>
    <rect width="4.15789474" height="22.22222222" x="575.69883041" y="388.88888889" rx="2.07894737"/>
    <rect width="22.22222222" height="4.15789474" x="611.11111111" y="397.92105263" rx="2.07894737"/>
    <rect width="4.15789474" height="22.22222222" x="620.14327485" y="388.88888889" rx="2.07894737"/>
    <rect width="22.22222222" height="4.15789474" x="655.55555556" y="397.92105263" rx="2.07894737"/>
    <rect width="4.15789474" height="22.22222222" x="664.5877193" y="388.88888889" rx="2.07894737"/>
    <rect width="22.22222222" height="4.15789474" x="700" y="397.92105263" rx="2.07894737"/>
    <rect width="4.15789474" height="22.22222222" x="709.03216374" y="388.88888889" rx="2.07894737"/>
    <rect width="22.22222222" height="4.15789474" x="744.44444444" y="397.92105263" rx="2.07894737"/>
    <rect width="4.15789474" height="22.22222222" x="753.47660819" y="388.88888889" rx="2.07894737"/>
    <rect width="22.22222222" height="4.15789474" x="788.88888889" y="397.92105263" rx="2.07894737"/>
    <rect width="4.15789474" height="22.22222222" x="797.92105263" y="388.88888889" rx="2.07894737"/>
    <rect width="22.22222222" height="4.15789474" x="-11.11111111" y="442.36549708" rx="2.07894737"/>
    <rect width="4.15789474" height="22.22222222" x="-2.07894737" y="433.33333333" rx="2.07894737"/>
    <rect width="22.22222222" height="4.15789474" x="33.33333333" y="442.36549708" rx="2.07894737"/>
    <rect width="4.15789474" height="22.22222222" x="42.36549708" y="433.33333333" rx="2.07894737"/>
    <rect width="22.22222222" height="4.15789474" x="77.77777778" y="442.36549708" rx="2.07894737"/>
    <rect width="4.15789474" height="22.22222222" x="86.80994152" y="433.33333333" rx="2.07894737"/>
    <rect width="22.22222222" height="4.15789474" x="122.22222222" y="442.36549708" rx="2.07894737"/>
    <rect width="4.15789474" height="22.22222222" x="131.25438596" y="433.33333333" rx="2.07894737"/>
    <rect width="22.22222222" height="4.15789474" x="166.66666667" y="442.36549708" rx="2.07894737"/>
    <rect width="4.15789474" height="22.22222222" x="175.69883041" y="433.33333333" rx="2.07894737"/>
    <rect width="22.22222222" height="4.15789474" x="211.11111111" y="442.36549708" rx="2.07894737"/>
    <rect width="4.15789474" height="22.22222222" x="220.14327485" y="433.33333333" rx="2.07894737"/>
    <rect width="22.22222222" height="4.15789474" x="255.55555556" y="442.36549708" rx="2.07894737"/>
    <rect width="4.15789474" height="22.22222222" x="264.5877193" y="433.33333333" rx="2.07894737"/>
    <rect width="22.22222222" height="4.15789474" x="300" y="442.36549708" rx="2.07894737"/>
    <rect width="4.15789474" height="22.22222222" x="309.03216374" y="433.33333333" rx="2.07894737"/>
    <rect width="22.22222222" height="4.15789474" x="344.44444444" y="442.36549708" rx="2.07894737"/>
    <rect width="4.15789474" height="22.22222222" x="353.47660819" y="433.33333333" rx="2.07894737"/>
    <rect width="22.22222222" height="4.15789474" x="388.88888889" y="442.36549708" rx="2.07894737"/>
    <rect width="4.15789474" height="22.22222222" x="397.92105263" y="433.33333333" rx="2.07894737"/>
    <rect width="22.22222222" height="4.15789474" x="433.33333333" y="442.36549708" rx="2.07894737"/>
    <rect width="4.15789474" height="22.22222222" x="442.36549708" y="433.33333333" rx="2.07894737"/>
    <rect width="22.22222222" height="4.15789474" x="477.77777778" y="442.36549708" rx="2.07894737"/>
    <rect width="4.15789474" height="22.22222222" x="486.80994152" y="433.33333333" rx="2.07894737"/>
    <rect width="22.22222222" height="4.15789474" x="522.22222222" y="442.36549708" rx="2.07894737"/>
    <rect width="4.15789474" height="22.22222222" x="531.25438596" y="433.33333333" rx="2.07894737"/>
    <rect width="22.22222222" height="4.15789474" x="566.66666667" y="442.36549708" rx="2.07894737"/>
    <rect width="4.15789474" height="22.22222222" x="575.69883041" y="433.33333333" rx="2.07894737"/>
    <rect width="22.22222222" height="4.15789474" x="611.11111111" y="442.36549708" rx="2.07894737"/>
    <rect width="4.15789474" height="22.22222222" x="620.14327485" y="433.33333333" rx="2.07894737"/>
    <rect width="22.22222222" height="4.15789474" x="655.55555556" y="442.36549708" rx="2.07894737"/>
    <rect width="4.15789474" height="22.22222222" x="664.5877193" y="433.33333333" rx="2.07894737"/>
    <rect width="22.22222222" height="4.15789474" x="700" y="442.36549708" rx="2.07894737"/>
    <rect width="4.15789474" height="22.22222222" x="709.03216374" y="433.33333333" rx="2.07894737"/>
    <rect width="22.22222222" height="4.15789474" x="744.44444444" y="442.36549708" rx="2.07894737"/>
    <rect width="4.15789474" height="22.22222222" x="753.47660819" y="433.33333333" rx="2.07894737"/>
    <rect width="22.22222222" height="4.15789474" x="788.88888889" y="442.36549708" rx="2.07894737"/>
    <rect width="4.15789474" height="22.22222222" x="797.92105263" y="433.33333333" rx="2.07894737"/>
    <rect width="22.22222222" height="4.15789474" x="-11.11111111" y="486.80994152" rx="2.07894737"/>
    <rect width="4.15789474" height="22.22222222" x="-2.07894737" y="477.77777778" rx="2.07894737"/>
    <rect width="22.22222222" height="4.15789474" x="33.33333333" y="486.80994152" rx="2.07894737"/>
    <rect width="4.15789474" height="22.22222222" x="42.36549708" y="477.77777778" rx="2.07894737"/>
    <rect width="22.22222222" height="4.15789474" x="77.77777778" y="486.80994152" rx="2.07894737"/>
    <rect width="4.15789474" height="22.22222222" x="86.80994152" y="477.77777778" rx="2.07894737"/>
    <rect width="22.22222222" height="4.15789474" x="122.22222222" y="486.80994152" rx="2.07894737"/>
    <rect width="4.15789474" height="22.22222222" x="131.25438596" y="477.77777778" rx="2.07894737"/>
    <rect width="22.22222222" height="4.15789474" x="166.66666667" y="486.80994152" rx="2.07894737"/>
    <rect width="4.15789474" height="22.22222222" x="175.69883041" y="477.77777778" rx="2.07894737"/>
    <rect width="22.22222222" height="4.15789474" x="211.11111111" y="486.80994152" rx="2.07894737"/>
    <rect width="4.15789474" height="22.22222222" x="220.14327485" y="477.77777778" rx="2.07894737"/>
    <rect width="22.22222222" height="4.15789474" x="255.55555556" y="486.80994152" rx="2.07894737"/>
    <rect width="4.15789474" height="22.22222222" x="264.5877193" y="477.77777778" rx="2.07894737"/>
    <rect width="22.22222222" height="4.15789474" x="300" y="486.80994152" rx="2.07894737"/>
    <rect width="4.15789474" height="22.22222222" x="309.03216374" y="477.77777778" rx="2.07894737"/>
    <rect width="22.22222222" height="4.15789474" x="344.44444444" y="486.80994152" rx="2.07894737"/>
    <rect width="4.15789474" height="22.22222222" x="353.47660819" y="477.77777778" rx="2.07894737"/>
    <rect width="22.22222222" height="4.15789474" x="388.88888889" y="486.80994152" rx="2.07894737"/>
    <rect width="4.15789474" height="22.22222222" x="397.92105263" y="477.77777778" rx="2.07894737"/>
    <rect width="22.22222222" height="4.15789474" x="433.33333333" y="486.80994152" rx="2.07894737"/>
    <rect width="4.15789474" height="22.22222222" x="442.36549708" y="477.77777778" rx="2.07894737"/>
    <rect width="22.22222222" height="4.15789474" x="477.77777778" y="486.80994152" rx="2.07894737"/>
    <rect width="4.15789474" height="22.22222222" x="486.80994152" y="477.77777778" rx="2.07894737"/>
    <rect width="22.22222222" height="4.15789474" x="522.22222222" y="486.80994152" rx="2.07894737"/>
    <rect width="4.15789474" height="22.22222222" x="531.25438596" y="477.77777778" rx="2.07894737"/>
    <rect width="22.22222222" height="4.15789474" x="566.66666667" y="486.80994152" rx="2.07894737"/>
    <rect width="4.15789474" height="22.22222222" x="575.69883041" y="477.77777778" rx="2.07894737"/>
    <rect width="22.22222222" height="4.15789474" x="611.11111111" y="486.80994152" rx="2.07894737"/>
    <rect width="4.15789474" height="22.22222222" x="620.14327485" y="477.77777778" rx="2.07894737"/>
    <rect width="22.22222222" height="4.15789474" x="655.55555556" y="486.80994152" rx="2.07894737"/>
    <rect width="4.15789474" height="22.22222222" x="664.5877193" y="477.77777778" rx="2.07894737"/>
    <rect width="22.22222222" height="4.15789474" x="700" y="486.80994152" rx="2.07894737"/>
    <rect width="4.15789474" height="22.22222222" x="709.03216374" y="477.77777778" rx="2.07894737"/>
    <rect width="22.22222222" height="4.15789474" x="744.44444444" y="486.80994152" rx="2.07894737"/>
    <rect width="4.15789474" height="22.22222222" x="753.47660819" y="477.77777778" rx="2.07894737"/>
    <rect width="22.22222222" height="4.15789474" x="788.88888889" y="486.80994152" rx="2.07894737"/>
    <rect width="4.15789474" height="22.22222222" x="797.92105263" y="477.77777778" rx="2.07894737"/>
    <rect width="22.22222222" height="4.15789474" x="-11.11111111" y="531.25438596" rx="2.07894737"/>
    <rect width="4.15789474" height="22.22222222" x="-2.07894737" y="522.22222222" rx="2.07894737"/>
    <rect width="22.22222222" height="4.15789474" x="33.33333333" y="531.25438596" rx="2.07894737"/>
    <rect width="4.15789474" height="22.22222222" x="42.36549708" y="522.22222222" rx="2.07894737"/>
    <rect width="22.22222222" height="4.15789474" x="77.77777778" y="531.25438596" rx="2.07894737"/>
    <rect width="4.15789474" height="22.22222222" x="86.80994152" y="522.22222222" rx="2.07894737"/>
    <rect width="22.22222222" height="4.15789474" x="122.22222222" y="531.25438596" rx="2.07894737"/>
    <rect width="4.15789474" height="22.22222222" x="131.25438596" y="522.22222222" rx="2.07894737"/>
    <rect width="22.22222222" height="4.15789474" x="166.66666667" y="531.25438596" rx="2.07894737"/>
    <rect width="4.15789474" height="22.22222222" x="175.69883041" y="522.22222222" rx="2.07894737"/>
    <rect width="22.22222222" height="4.15789474" x="211.11111111" y="531.25438596" rx="2.07894737"/>
    <rect width="4.15789474" height="22.22222222" x="220.14327485" y="522.22222222" rx="2.07894737"/>
    <rect width="22.22222222" height="4.15789474" x="255.55555556" y="531.25438596" rx="2.07894737"/>
    <rect width="4.15789474" height="22.22222222" x="264.5877193" y="522.22222222" rx="2.07894737"/>
    <rect width="22.22222222" height="4.15789474" x="300" y="531.25438596" rx="2.07894737"/>
    <rect width="4.15789474" height="22.22222222" x="309.03216374" y="522.22222222" rx="2.07894737"/>
    <rect width="22.22222222" height="4.15789474" x="344.44444444" y="531.25438596" rx="2.07894737"/>
    <rect width="4.15789474" height="22.22222222" x="353.47660819" y="522.22222222" rx="2.07894737"/>
    <rect width="22.22222222" height="4.15789474" x="388.88888889" y="531.25438596" rx="2.07894737"/>
    <rect width="4.15789474" height="22.22222222" x="397.92105263" y="522.22222222" rx="2.07894737"/>
    <rect width="22.22222222" height="4.15789474" x="433.33333333" y="531.25438596" rx="2.07894737"/>
    <rect width="4.15789474" height="22.22222222" x="442.36549708" y="522.22222222" rx="2.07894737"/>
    <rect width="22.22222222" height="4.15789474" x="477.77777778" y="531.25438596" rx="2.07894737"/>
    <rect width="4.15789474" height="22.22222222" x="486.80994152" y="522.22222222" rx="2.07894737"/>
    <rect width="22.22222222" height="4.15789474" x="522.22222222" y="531.25438596" rx="2.07894737"/>
    <rect width="4.15789474" height="22.22222222" x="531.25438596" y="522.22222222" rx="2.07894737"/>
    <rect width="22.22222222" height="4.15789474" x="566.66666667" y="531.25438596" rx="2.07894737"/>
    <rect width="4.15789474" height="22.22222222" x="575.69883041" y="522.22222222" rx="2.07894737"/>
    <rect width="22.22222222" height="4.15789474" x="611.11111111" y="531.25438596" rx="2.07894737"/>
    <rect width="4.15789474" height="22.22222222" x="620.14327485" y="522.22222222" rx="2.07894737"/>
    <rect width="22.22222222" height="4.15789474" x="655.55555556" y="531.25438596" rx="2.07894737"/>
    <rect width="4.15789474" height="22.22222222" x="664.5877193" y="522.22222222" rx="2.07894737"/>
    <rect width="22.22222222" height="4.15789474" x="700" y="531.25438596" rx="2.07894737"/>
    <rect width="4.15789474" height="22.22222222" x="709.03216374" y="522.22222222" rx="2.07894737"/>
    <rect width="22.22222222" height="4.15789474" x="744.44444444" y="531.25438596" rx="2.07894737"/>
    <rect width="4.15789474" height="22.22222222" x="753.47660819" y="522.22222222" rx="2.07894737"/>
    <rect width="22.22222222" height="4.15789474" x="788.88888889" y="531.25438596" rx="2.07894737"/>
    <rect width="4.15789474" height="22.22222222" x="797.92105263" y="522.22222222" rx="2.07894737"/>
    <rect width="22.22222222" height="4.15789474" x="-11.11111111" y="575.69883041" rx="2.07894737"/>
    <rect width="4.15789474" height="22.22222222" x="-2.07894737" y="566.66666667" rx="2.07894737"/>
    <rect width="22.22222222" height="4.15789474" x="33.33333333" y="575.69883041" rx="2.07894737"/>
    <rect width="4.15789474" height="22.22222222" x="42.36549708" y="566.66666667" rx="2.07894737"/>
    <rect width="22.22222222" height="4.15789474" x="77.77777778" y="575.69883041" rx="2.07894737"/>
    <rect width="4.15789474" height="22.22222222" x="86.80994152" y="566.66666667" rx="2.07894737"/>
    <rect width="22.22222222" height="4.15789474" x="122.22222222" y="575.69883041" rx="2.07894737"/>
    <rect width="4.15789474" height="22.22222222" x="131.25438596" y="566.66666667" rx="2.07894737"/>
    <rect width="22.22222222" height="4.15789474" x="166.66666667" y="575.69883041" rx="2.07894737"/>
    <rect width="4.15789474" height="22.22222222" x="175.69883041" y="566.66666667" rx="2.07894737"/>
    <rect width="22.22222222" height="4.15789474" x="211.11111111" y="575.69883041" rx="2.07894737"/>
    <rect width="4.15789474" height="22.22222222" x="220.14327485" y="566.66666667" rx="2.07894737"/>
    <rect width="22.22222222" height="4.15789474" x="255.55555556" y="575.69883041" rx="2.07894737"/>
    <rect width="4.15789474" height="22.22222222" x="264.5877193" y="566.66666667" rx="2.07894737"/>
    <rect width="22.22222222" height="4.15789474" x="300" y="575.69883041" rx="2.07894737"/>
    <rect width="4.15789474" height="22.22222222" x="309.03216374" y="566.66666667" rx="2.07894737"/>
    <rect width="22.22222222" height="4.15789474" x="344.44444444" y="575.69883041" rx="2.07894737"/>
    <rect width="4.15789474" height="22.22222222" x="353.47660819" y="566.66666667" rx="2.07894737"/>
    <rect width="22.22222222" height="4.15789474" x="388.88888889" y="575.69883041" rx="2.07894737"/>
    <rect width="4.15789474" height="22.22222222" x="397.92105263" y="566.66666667" rx="2.07894737"/>
    <rect width="22.22222222" height="4.15789474" x="433.33333333" y="575.69883041" rx="2.07894737"/>
    <rect width="4.15789474" height="22.22222222" x="442.36549708" y="566.66666667" rx="2.07894737"/>
    <rect width="22.22222222" height="4.15789474" x="477.77777778" y="575.69883041" rx="2.07894737"/>
    <rect width="4.15789474" height="22.22222222" x="486.80994152" y="566.66666667" rx="2.07894737"/>
    <rect width="22.22222222" height="4.15789474" x="522.22222222" y="575.69883041" rx="2.07894737"/>
    <rect width="4.15789474" height="22.22222222" x="531.25438596" y="566.66666667" rx="2.07894737"/>
    <rect width="22.22222222" height="4.15789474" x="566.66666667" y="575.69883041" rx="2.07894737"/>
    <rect width="4.15789474" height="22.22222222" x="575.69883041" y="566.66666667" rx="2.07894737"/>
    <rect width="22.22222222" height="4.15789474" x="611.11111111" y="575.69883041" rx="2.07894737"/>
    <rect width="4.15789474" height="22.22222222" x="620.14327485" y="566.66666667" rx="2.07894737"/>
    <rect width="22.22222222" height="4.15789474" x="655.55555556" y="575.69883041" rx="2.07894737"/>
    <rect width="4.15789474" height="22.22222222" x="664.5877193" y="566.66666667" rx="2.07894737"/>
    <rect width="22.22222222" height="4.15789474" x="700" y="575.69883041" rx="2.07894737"/>
    <rect width="4.15789474" height="22.22222222" x="709.03216374" y="566.66666667" rx="2.07894737"/>
    <rect width="22.22222222" height="4.15789474" x="744.44444444" y="575.69883041" rx="2.07894737"/>
    <rect width="4.15789474" height="22.22222222" x="753.47660819" y="566.66666667" rx="2.07894737"/>
    <rect width="22.22222222" height="4.15789474" x="788.88888889" y="575.69883041" rx="2.07894737"/>
    <rect width="4.15789474" height="22.22222222" x="797.92105263" y="566.66666667" rx="2.07894737"/>
    <rect width="22.22222222" height="4.15789474" x="-11.11111111" y="620.14327485" rx="2.07894737"/>
    <rect width="4.15789474" height="22.22222222" x="-2.07894737" y="611.11111111" rx="2.07894737"/>
    <rect width="22.22222222" height="4.15789474" x="33.33333333" y="620.14327485" rx="2.07894737"/>
    <rect width="4.15789474" height="22.22222222" x="42.36549708" y="611.11111111" rx="2.07894737"/>
    <rect width="22.22222222" height="4.15789474" x="77.77777778" y="620.14327485" rx="2.07894737"/>
    <rect width="4.15789474" height="22.22222222" x="86.80994152" y="611.11111111" rx="2.07894737"/>
    <rect width="22.22222222" height="4.15789474" x="122.22222222" y="620.14327485" rx="2.07894737"/>
    <rect width="4.15789474" height="22.22222222" x="131.25438596" y="611.11111111" rx="2.07894737"/>
    <rect width="22.22222222" height="4.15789474" x="166.66666667" y="620.14327485" rx="2.07894737"/>
    <rect width="4.15789474" height="22.22222222" x="175.69883041" y="611.11111111" rx="2.07894737"/>
    <rect width="22.22222222" height="4.15789474" x="211.11111111" y="620.14327485" rx="2.07894737"/>
    <rect width="4.15789474" height="22.22222222" x="220.14327485" y="611.11111111" rx="2.07894737"/>
    <rect width="22.22222222" height="4.15789474" x="255.55555556" y="620.14327485" rx="2.07894737"/>
    <rect width="4.15789474" height="22.22222222" x="264.5877193" y="611.11111111" rx="2.07894737"/>
    <rect width="22.22222222" height="4.15789474" x="300" y="620.14327485" rx="2.07894737"/>
    <rect width="4.15789474" height="22.22222222" x="309.03216374" y="611.11111111" rx="2.07894737"/>
    <rect width="22.22222222" height="4.15789474" x="344.44444444" y="620.14327485" rx="2.07894737"/>
    <rect width="4.15789474" height="22.22222222" x="353.47660819" y="611.11111111" rx="2.07894737"/>
    <rect width="22.22222222" height="4.15789474" x="388.88888889" y="620.14327485" rx="2.07894737"/>
    <rect width="4.15789474" height="22.22222222" x="397.92105263" y="611.11111111" rx="2.07894737"/>
    <rect width="22.22222222" height="4.15789474" x="433.33333333" y="620.14327485" rx="2.07894737"/>
    <rect width="4.15789474" height="22.22222222" x="442.36549708" y="611.11111111" rx="2.07894737"/>
    <rect width="22.22222222" height="4.15789474" x="477.77777778" y="620.14327485" rx="2.07894737"/>
    <rect width="4.15789474" height="22.22222222" x="486.80994152" y="611.11111111" rx="2.07894737"/>
    <rect width="22.22222222" height="4.15789474" x="522.22222222" y="620.14327485" rx="2.07894737"/>
    <rect width="4.15789474" height="22.22222222" x="531.25438596" y="611.11111111" rx="2.07894737"/>
    <rect width="22.22222222" height="4.15789474" x="566.66666667" y="620.14327485" rx="2.07894737"/>
    <rect width="4.15789474" height="22.22222222" x="575.69883041" y="611.11111111" rx="2.07894737"/>
    <rect width="22.22222222" height="4.15789474" x="611.11111111" y="620.14327485" rx="2.07894737"/>
    <rect width="4.15789474" height="22.22222222" x="620.14327485" y="611.11111111" rx="2.07894737"/>
    <rect width="22.22222222" height="4.15789474" x="655.55555556" y="620.14327485" rx="2.07894737"/>
    <rect width="4.15789474" height="22.22222222" x="664.5877193" y="611.11111111" rx="2.07894737"/>
    <rect width="22.22222222" height="4.15789474" x="700" y="620.14327485" rx="2.07894737"/>
    <rect width="4.15789474" height="22.22222222" x="709.03216374" y="611.11111111" rx="2.07894737"/>
    <rect width="22.22222222" height="4.15789474" x="744.44444444" y="620.14327485" rx="2.07894737"/>
    <rect width="4.15789474" height="22.22222222" x="753.47660819" y="611.11111111" rx="2.07894737"/>
    <rect width="22.22222222" height="4.15789474" x="788.88888889" y="620.14327485" rx="2.07894737"/>
    <rect width="4.15789474" height="22.22222222" x="797.92105263" y="611.11111111" rx="2.07894737"/>
    <rect width="22.22222222" height="4.15789474" x="-11.11111111" y="664.5877193" rx="2.07894737"/>
    <rect width="4.15789474" height="22.22222222" x="-2.07894737" y="655.55555556" rx="2.07894737"/>
    <rect width="22.22222222" height="4.15789474" x="33.33333333" y="664.5877193" rx="2.07894737"/>
    <rect width="4.15789474" height="22.22222222" x="42.36549708" y="655.55555556" rx="2.07894737"/>
    <rect width="22.22222222" height="4.15789474" x="77.77777778" y="664.5877193" rx="2.07894737"/>
    <rect width="4.15789474" height="22.22222222" x="86.80994152" y="655.55555556" rx="2.07894737"/>
    <rect width="22.22222222" height="4.15789474" x="122.22222222" y="664.5877193" rx="2.07894737"/>
    <rect width="4.15789474" height="22.22222222" x="131.25438596" y="655.55555556" rx="2.07894737"/>
    <rect width="22.22222222" height="4.15789474" x="166.66666667" y="664.5877193" rx="2.07894737"/>
    <rect width="4.15789474" height="22.22222222" x="175.69883041" y="655.55555556" rx="2.07894737"/>
    <rect width="22.22222222" height="4.15789474" x="211.11111111" y="664.5877193" rx="2.07894737"/>
    <rect width="4.15789474" height="22.22222222" x="220.14327485" y="655.55555556" rx="2.07894737"/>
    <rect width="22.22222222" height="4.15789474" x="255.55555556" y="664.5877193" rx="2.07894737"/>
    <rect width="4.15789474" height="22.22222222" x="264.5877193" y="655.55555556" rx="2.07894737"/>
    <rect width="22.22222222" height="4.15789474" x="300" y="664.5877193" rx="2.07894737"/>
    <rect width="4.15789474" height="22.22222222" x="309.03216374" y="655.55555556" rx="2.07894737"/>
    <rect width="22.22222222" height="4.15789474" x="344.44444444" y="664.5877193" rx="2.07894737"/>
    <rect width="4.15789474" height="22.22222222" x="353.47660819" y="655.55555556" rx="2.07894737"/>
    <rect width="22.22222222" height="4.15789474" x="388.88888889" y="664.5877193" rx="2.07894737"/>
    <rect width="4.15789474" height="22.22222222" x="397.92105263" y="655.55555556" rx="2.07894737"/>
    <rect width="22.22222222" height="4.15789474" x="433.33333333" y="664.5877193" rx="2.07894737"/>
    <rect width="4.15789474" height="22.22222222" x="442.36549708" y="655.55555556" rx="2.07894737"/>
    <rect width="22.22222222" height="4.15789474" x="477.77777778" y="664.5877193" rx="2.07894737"/>
    <rect width="4.15789474" height="22.22222222" x="486.80994152" y="655.55555556" rx="2.07894737"/>
    <rect width="22.22222222" height="4.15789474" x="522.22222222" y="664.5877193" rx="2.07894737"/>
    <rect width="4.15789474" height="22.22222222" x="531.25438596" y="655.55555556" rx="2.07894737"/>
    <rect width="22.22222222" height="4.15789474" x="566.66666667" y="664.5877193" rx="2.07894737"/>
    <rect width="4.15789474" height="22.22222222" x="575.69883041" y="655.55555556" rx="2.07894737"/>
    <rect width="22.22222222" height="4.15789474" x="611.11111111" y="664.5877193" rx="2.07894737"/>
    <rect width="4.15789474" height="22.22222222" x="620.14327485" y="655.55555556" rx="2.07894737"/>
    <rect width="22.22222222" height="4.15789474" x="655.55555556" y="664.5877193" rx="2.07894737"/>
    <rect width="4.15789474" height="22.22222222" x="664.5877193" y="655.55555556" rx="2.07894737"/>
    <rect width="22.22222222" height="4.15789474" x="700" y="664.5877193" rx="2.07894737"/>
    <rect width="4.15789474" height="22.22222222" x="709.03216374" y="655.55555556" rx="2.07894737"/>
    <rect width="22.22222222" height="4.15789474" x="744.44444444" y="664.5877193" rx="2.07894737"/>
    <rect width="4.15789474" height="22.22222222" x="753.47660819" y="655.55555556" rx="2.07894737"/>
    <rect width="22.22222222" height="4.15789474" x="788.88888889" y="664.5877193" rx="2.07894737"/>
    <rect width="4.15789474" height="22.22222222" x="797.92105263" y="655.55555556" rx="2.07894737"/>
    <rect width="22.22222222" height="4.15789474" x="-11.11111111" y="709.03216374" rx="2.07894737"/>
    <rect width="4.15789474" height="22.22222222" x="-2.07894737" y="700" rx="2.07894737"/>
    <rect width="22.22222222" height="4.15789474" x="33.33333333" y="709.03216374" rx="2.07894737"/>
    <rect width="4.15789474" height="22.22222222" x="42.36549708" y="700" rx="2.07894737"/>
    <rect width="22.22222222" height="4.15789474" x="77.77777778" y="709.03216374" rx="2.07894737"/>
    <rect width="4.15789474" height="22.22222222" x="86.80994152" y="700" rx="2.07894737"/>
    <rect width="22.22222222" height="4.15789474" x="122.22222222" y="709.03216374" rx="2.07894737"/>
    <rect width="4.15789474" height="22.22222222" x="131.25438596" y="700" rx="2.07894737"/>
    <rect width="22.22222222" height="4.15789474" x="166.66666667" y="709.03216374" rx="2.07894737"/>
    <rect width="4.15789474" height="22.22222222" x="175.69883041" y="700" rx="2.07894737"/>
    <rect width="22.22222222" height="4.15789474" x="211.11111111" y="709.03216374" rx="2.07894737"/>
    <rect width="4.15789474" height="22.22222222" x="220.14327485" y="700" rx="2.07894737"/>
    <rect width="22.22222222" height="4.15789474" x="255.55555556" y="709.03216374" rx="2.07894737"/>
    <rect width="4.15789474" height="22.22222222" x="264.5877193" y="700" rx="2.07894737"/>
    <rect width="22.22222222" height="4.15789474" x="300" y="709.03216374" rx="2.07894737"/>
    <rect width="4.15789474" height="22.22222222" x="309.03216374" y="700" rx="2.07894737"/>
    <rect width="22.22222222" height="4.15789474" x="344.44444444" y="709.03216374" rx="2.07894737"/>
    <rect width="4.15789474" height="22.22222222" x="353.47660819" y="700" rx="2.07894737"/>
    <rect width="22.22222222" height="4.15789474" x="388.88888889" y="709.03216374" rx="2.07894737"/>
    <rect width="4.15789474" height="22.22222222" x="397.92105263" y="700" rx="2.07894737"/>
    <rect width="22.22222222" height="4.15789474" x="433.33333333" y="709.03216374" rx="2.07894737"/>
    <rect width="4.15789474" height="22.22222222" x="442.36549708" y="700" rx="2.07894737"/>
    <rect width="22.22222222" height="4.15789474" x="477.77777778" y="709.03216374" rx="2.07894737"/>
    <rect width="4.15789474" height="22.22222222" x="486.80994152" y="700" rx="2.07894737"/>
    <rect width="22.22222222" height="4.15789474" x="522.22222222" y="709.03216374" rx="2.07894737"/>
    <rect width="4.15789474" height="22.22222222" x="531.25438596" y="700" rx="2.07894737"/>
    <rect width="22.22222222" height="4.15789474" x="566.66666667" y="709.03216374" rx="2.07894737"/>
    <rect width="4.15789474" height="22.22222222" x="575.69883041" y="700" rx="2.07894737"/>
    <rect width="22.22222222" height="4.15789474" x="611.11111111" y="709.03216374" rx="2.07894737"/>
    <rect width="4.15789474" height="22.22222222" x="620.14327485" y="700" rx="2.07894737"/>
    <rect width="22.22222222" height="4.15789474" x="655.55555556" y="709.03216374" rx="2.07894737"/>
    <rect width="4.15789474" height="22.22222222" x="664.5877193" y="700" rx="2.07894737"/>
    <rect width="22.22222222" height="4.15789474" x="700" y="709.03216374" rx="2.07894737"/>
    <rect width="4.15789474" height="22.22222222" x="709.03216374" y="700" rx="2.07894737"/>
    <rect width="22.22222222" height="4.15789474" x="744.44444444" y="709.03216374" rx="2.07894737"/>
    <rect width="4.15789474" height="22.22222222" x="753.47660819" y="700" rx="2.07894737"/>
    <rect width="22.22222222" height="4.15789474" x="788.88888889" y="709.03216374" rx="2.07894737"/>
    <rect width="4.15789474" height="22.22222222" x="797.92105263" y="700" rx="2.07894737"/>
    <rect width="22.22222222" height="4.15789474" x="-11.11111111" y="753.47660819" rx="2.07894737"/>
    <rect width="4.15789474" height="22.22222222" x="-2.07894737" y="744.44444444" rx="2.07894737"/>
    <rect width="22.22222222" height="4.15789474" x="33.33333333" y="753.47660819" rx="2.07894737"/>
    <rect width="4.15789474" height="22.22222222" x="42.36549708" y="744.44444444" rx="2.07894737"/>
    <rect width="22.22222222" height="4.15789474" x="77.77777778" y="753.47660819" rx="2.07894737"/>
    <rect width="4.15789474" height="22.22222222" x="86.80994152" y="744.44444444" rx="2.07894737"/>
    <rect width="22.22222222" height="4.15789474" x="122.22222222" y="753.47660819" rx="2.07894737"/>
    <rect width="4.15789474" height="22.22222222" x="131.25438596" y="744.44444444" rx="2.07894737"/>
    <rect width="22.22222222" height="4.15789474" x="166.66666667" y="753.47660819" rx="2.07894737"/>
    <rect width="4.15789474" height="22.22222222" x="175.69883041" y="744.44444444" rx="2.07894737"/>
    <rect width="22.22222222" height="4.15789474" x="211.11111111" y="753.47660819" rx="2.07894737"/>
    <rect width="4.15789474" height="22.22222222" x="220.14327485" y="744.44444444" rx="2.07894737"/>
    <rect width="22.22222222" height="4.15789474" x="255.55555556" y="753.47660819" rx="2.07894737"/>
    <rect width="4.15789474" height="22.22222222" x="264.5877193" y="744.44444444" rx="2.07894737"/>
    <rect width="22.22222222" height="4.15789474" x="300" y="753.47660819" rx="2.07894737"/>
    <rect width="4.15789474" height="22.22222222" x="309.03216374" y="744.44444444" rx="2.07894737"/>
    <rect width="22.22222222" height="4.15789474" x="344.44444444" y="753.47660819" rx="2.07894737"/>
    <rect width="4.15789474" height="22.22222222" x="353.47660819" y="744.44444444" rx="2.07894737"/>
    <rect width="22.22222222" height="4.15789474" x="388.88888889" y="753.47660819" rx="2.07894737"/>
    <rect width="4.15789474" height="22.22222222" x="397.92105263" y="744.44444444" rx="2.07894737"/>
    <rect width="22.22222222" height="4.15789474" x="433.33333333" y="753.47660819" rx="2.07894737"/>
    <rect width="4.15789474" height="22.22222222" x="442.36549708" y="744.44444444" rx="2.07894737"/>
    <rect width="22.22222222" height="4.15789474" x="477.77777778" y="753.47660819" rx="2.07894737"/>
    <rect width="4.15789474" height="22.22222222" x="486.80994152" y="744.44444444" rx="2.07894737"/>
    <rect width="22.22222222" height="4.15789474" x="522.22222222" y="753.47660819" rx="2.07894737"/>
    <rect width="4.15789474" height="22.22222222" x="531.25438596" y="744.44444444" rx="2.07894737"/>
    <rect width="22.22222222" height="4.15789474" x="566.66666667" y="753.47660819" rx="2.07894737"/>
    <rect width="4.15789474" height="22.22222222" x="575.69883041" y="744.44444444" rx="2.07894737"/>
    <rect width="22.22222222" height="4.15789474" x="611.11111111" y="753.47660819" rx="2.07894737"/>
    <rect width="4.15789474" height="22.22222222" x="620.14327485" y="744.44444444" rx="2.07894737"/>
    <rect width="22.22222222" height="4.15789474" x="655.55555556" y="753.47660819" rx="2.07894737"/>
    <rect width="4.15789474" height="22.22222222" x="664.5877193" y="744.44444444" rx="2.07894737"/>
    <rect width="22.22222222" height="4.15789474" x="700" y="753.47660819" rx="2.07894737"/>
    <rect width="4.15789474" height="22.22222222" x="709.03216374" y="744.44444444" rx="2.07894737"/>
    <rect width="22.22222222" height="4.15789474" x="744.44444444" y="753.47660819" rx="2.07894737"/>
    <rect width="4.15789474" height="22.22222222" x="753.47660819" y="744.44444444" rx="2.07894737"/>
    <rect width="22.22222222" height="4.15789474" x="788.88888889" y="753.47660819" rx="2.07894737"/>
    <rect width="4.15789474" height="22.22222222" x="797.92105263" y="744.44444444" rx="2.07894737"/>
    <rect width="22.22222222" height="4.15789474" x="-11.11111111" y="797.92105263" rx="2.07894737"/>
    <rect width="4.15789474" height="22.22222222" x="-2.07894737" y="788.88888889" rx="2.07894737"/>
    <rect width="22.22222222" height="4.15789474" x="33.33333333" y="797.92105263" rx="2.07894737"/>
    <rect width="4.15789474" height="22.22222222" x="42.36549708" y="788.88888889" rx="2.07894737"/>
    <rect width="22.22222222" height="4.15789474" x="77.77777778" y="797.92105263" rx="2.07894737"/>
    <rect width="4.15789474" height="22.22222222" x="86.80994152" y="788.88888889" rx="2.07894737"/>
    <rect width="22.22222222" height="4.15789474" x="122.22222222" y="797.92105263" rx="2.07894737"/>
    <rect width="4.15789474" height="22.22222222" x="131.25438596" y="788.88888889" rx="2.07894737"/>
    <rect width="22.22222222" height="4.15789474" x="166.66666667" y="797.92105263" rx="2.07894737"/>
    <rect width="4.15789474" height="22.22222222" x="175.69883041" y="788.88888889" rx="2.07894737"/>
    <rect width="22.22222222" height="4.15789474" x="211.11111111" y="797.92105263" rx="2.07894737"/>
    <rect width="4.15789474" height="22.22222222" x="220.14327485" y="788.88888889" rx="2.07894737"/>
    <rect width="22.22222222" height="4.15789474" x="255.55555556" y="797.92105263" rx="2.07894737"/>
    <rect width="4.15789474" height="22.22222222" x="264.5877193" y="788.88888889" rx="2.07894737"/>
    <rect width="22.22222222" height="4.15789474" x="300" y="797.92105263" rx="2.07894737"/>
    <rect width="4.15789474" height="22.22222222" x="309.03216374" y="788.88888889" rx="2.07894737"/>
    <rect width="22.22222222" height="4.15789474" x="344.44444444" y="797.92105263" rx="2.07894737"/>
    <rect width="4.15789474" height="22.22222222" x="353.47660819" y="788.88888889" rx="2.07894737"/>
    <rect width="22.22222222" height="4.15789474" x="388.88888889" y="797.92105263" rx="2.07894737"/>
    <rect width="4.15789474" height="22.22222222" x="397.92105263" y="788.88888889" rx="2.07894737"/>
    <rect width="22.22222222" height="4.15789474" x="433.33333333" y="797.92105263" rx="2.07894737"/>
    <rect width="4.15789474" height="22.22222222" x="442.36549708" y="788.88888889" rx="2.07894737"/>
    <rect width="22.22222222" height="4.15789474" x="477.77777778" y="797.92105263" rx="2.07894737"/>
    <rect width="4.15789474" height="22.22222222" x="486.80994152" y="788.88888889" rx="2.07894737"/>
    <rect width="22.22222222" height="4.15789474" x="522.22222222" y="797.92105263" rx="2.07894737"/>
    <rect width="4.15789474" height="22.22222222" x="531.25438596" y="788.88888889" rx="2.07894737"/>
    <rect width="22.22222222" height="4.15789474" x="566.66666667" y="797.92105263" rx="2.07894737"/>
    <rect width="4.15789474" height="22.22222222" x="575.69883041" y="788.88888889" rx="2.07894737"/>
    <rect width="22.22222222" height="4.15789474" x="611.11111111" y="797.92105263" rx="2.07894737"/>
    <rect width="4.15789474" height="22.22222222" x="620.14327485" y="788.88888889" rx="2.07894737"/>
    <rect width="22.22222222" height="4.15789474" x="655.55555556" y="797.92105263" rx="2.07894737"/>
    <rect width="4.15789474" height="22.22222222" x="664.5877193" y="788.88888889" rx="2.07894737"/>
    <rect width="22.22222222" height="4.15789474" x="700" y="797.92105263" rx="2.07894737"/>
    <rect width="4.15789474" height="22.22222222" x="709.03216374" y="788.88888889" rx="2.07894737"/>
    <rect width="22.22222222" height="4.15789474" x="744.44444444" y="797.92105263" rx="2.07894737"/>
    <rect width="4.15789474" height="22.22222222" x="753.47660819" y="788.88888889" rx="2.07894737"/>
    <rect width="22.22222222" height="4.15789474" x="788.88888889" y="797.92105263" rx="2.07894737"/>
    <rect width="4.15789474" height="22.22222222" x="797.92105263" y="788.88888889" rx="2.07894737"/>
  </g>
</svg>
